<?xml version="1.0" encoding="UTF-8"?>
<svg version="1.1" xmlns="http://www.w3.org/2000/svg" width="128" height="128">
<path d="M0 0 C1.92747574 -0.01925285 1.92747574 -0.01925285 3.89389038 -0.03889465 C5.29855972 -0.04706162 6.70323341 -0.05450543 8.10791016 -0.0612793 C9.17009703 -0.06739259 9.17009703 -0.06739259 10.25374222 -0.07362938 C14.00070146 -0.09446912 17.74762429 -0.10878075 21.49462891 -0.11816406 C25.3606484 -0.12923392 29.22609318 -0.16364556 33.09190941 -0.20333576 C36.06880756 -0.22949933 39.04556855 -0.23785553 42.02257156 -0.24144554 C43.44751499 -0.24631098 44.87245231 -0.25792396 46.29728317 -0.27648354 C48.29309947 -0.30086813 50.28919612 -0.29749084 52.28515625 -0.29296875 C53.4197226 -0.29883499 54.55428894 -0.30470123 55.72323608 -0.31074524 C59.61389686 0.31169584 61.19333136 1.18829415 63.77197266 4.17700195 C64.26632036 7.05007634 64.43750111 9.33203634 64.38720703 12.20263672 C64.39275604 13.0079483 64.39830505 13.81325989 64.40402222 14.64297485 C64.41582315 17.30205992 64.39154233 19.95944264 64.36572266 22.6184082 C64.36401177 24.4663841 64.36407702 26.31436242 64.36584473 28.16233826 C64.3641913 32.03359216 64.34548762 35.9042671 64.31396484 39.77539062 C64.27425928 44.74123268 64.26992258 49.70631725 64.27742767 54.67228794 C64.28049465 58.48726866 64.26838705 62.30207858 64.251297 66.11701775 C64.24425899 67.94827135 64.24114343 69.7795443 64.24198914 71.61081123 C64.24019458 74.16781858 64.21884382 76.72391207 64.19189453 79.28076172 C64.19482513 80.03980301 64.19775574 80.7988443 64.20077515 81.58088684 C64.15460801 84.41490202 64.07141162 86.64749025 62.65892029 89.14526367 C59.80811197 90.70401815 57.39722483 90.56656824 54.16088867 90.58105469 C53.16037476 90.59134956 53.16037476 90.59134956 52.13964844 90.60185242 C49.93484201 90.62015311 47.73074499 90.61627848 45.52587891 90.6105957 C43.99274971 90.61515617 42.45962257 90.62046134 40.92649841 90.6264801 C37.71271462 90.63541774 34.49917922 90.63298107 31.28540039 90.62304688 C27.16811344 90.6115597 23.05168445 90.63176052 18.93451023 90.66096401 C15.76802631 90.67931678 12.6017483 90.67903541 9.43522453 90.67332649 C7.91737604 90.67317314 6.39951371 90.67922879 4.88171577 90.69161797 C2.75808154 90.70650887 0.63603592 90.69586757 -1.48754883 90.67871094 C-2.69539536 90.67854477 -3.90324188 90.6783786 -5.14768982 90.6782074 C-8.22802734 90.17700195 -8.22802734 90.17700195 -10.61795044 88.63478088 C-12.8289633 85.25967451 -12.78096438 82.25464772 -12.72973633 78.35083008 C-12.73784081 77.17453285 -12.73784081 77.17453285 -12.74610901 75.97447205 C-12.75860425 73.38534668 -12.74210071 70.79733161 -12.72412109 68.20825195 C-12.72427606 66.4075108 -12.72576472 64.60676931 -12.72853088 62.80603027 C-12.72991523 59.03321578 -12.71735099 55.26078127 -12.69458008 51.48803711 C-12.66619527 46.65234468 -12.66893226 41.81728365 -12.68167019 36.98154449 C-12.68862568 33.26347462 -12.68083958 29.54555064 -12.66841316 25.82749939 C-12.66389739 24.04451558 -12.66356296 22.26151611 -12.66747856 20.47853088 C-12.67038953 17.98641869 -12.65388992 15.49517612 -12.63208008 13.00317383 C-12.63658173 12.26642929 -12.64108337 11.52968475 -12.64572144 10.77061462 C-12.60063605 7.66953339 -12.40039988 5.48967946 -10.89027405 2.75036621 C-7.67180723 -0.29600509 -4.20778306 0.03656063 0 0 Z M-7.22802734 6.17700195 C-7.33363765 8.60018187 -7.37481117 10.99500409 -7.37329102 13.41894531 C-7.37664963 14.17665726 -7.38000824 14.9343692 -7.38346863 15.71504211 C-7.39300657 18.23232642 -7.39492316 20.74954442 -7.39599609 23.2668457 C-7.3992067 25.00940479 -7.40257062 26.75196359 -7.40608215 28.49452209 C-7.41208055 32.1522789 -7.41392133 35.81001206 -7.41333008 39.46777344 C-7.41322842 44.16349124 -7.42688171 48.85905798 -7.44410229 53.55473995 C-7.4552003 57.15516359 -7.45724997 60.75555046 -7.45672035 64.35598946 C-7.45790376 66.08760664 -7.46234557 67.81922468 -7.47005272 69.55082512 C-7.47980845 71.96921354 -7.47699225 74.38727074 -7.47094727 76.80566406 C-7.47656677 77.52626007 -7.48218628 78.24685608 -7.48797607 78.98928833 C-7.57776837 83.03182878 -7.57776837 83.03182878 -5.22802734 86.17700195 C-2.49066134 86.49134511 -2.49066134 86.49134511 0.75048828 86.45166016 C2.63253967 86.46595818 2.63253967 86.46595818 4.5526123 86.48054504 C5.92781604 86.48028365 7.30301979 86.47934677 8.67822266 86.4777832 C10.0830498 86.48166849 11.48787576 86.48600281 12.8927002 86.49076843 C15.83833625 86.49823549 18.78385246 86.49793566 21.72949219 86.49267578 C25.50944961 86.48687658 29.28891777 86.50382005 33.06879425 86.52702045 C35.97010174 86.54173122 38.87129061 86.54263323 41.77262878 86.53951073 C43.16652903 86.54002516 44.56043572 86.5452857 45.95429993 86.55532265 C47.90064782 86.56761863 49.84709428 86.55897886 51.79345703 86.54931641 C52.90217163 86.54994583 54.01088623 86.55057526 55.15319824 86.55122375 C56.0173938 86.42773056 56.88158936 86.30423737 57.77197266 86.17700195 C60.26807969 82.4328414 60.0253525 80.47522232 60.03076172 75.99926758 C60.03426636 75.27213058 60.037771 74.54499359 60.04138184 73.79582214 C60.05018649 71.39153505 60.04435456 68.98754206 60.03759766 66.58325195 C60.03894467 64.91320743 60.04088551 63.24316329 60.043396 61.57312012 C60.04634554 58.07271593 60.04205509 54.57241381 60.03271484 51.07202148 C60.02132038 46.58270392 60.02788076 42.0936255 60.03985977 37.60431671 C60.04708296 34.15568232 60.04478833 30.70710472 60.03960419 27.25846863 C60.03826896 25.60304232 60.03991097 23.94761087 60.04456329 22.29219055 C60.04963609 19.97956663 60.04190791 17.66733127 60.03076172 15.35473633 C60.02917053 14.03807983 60.02757935 12.72142334 60.02593994 11.36486816 C60.01990215 8.02145286 60.01990215 8.02145286 57.77197266 5.17700195 C54.99151791 4.73009284 54.99151791 4.73009284 51.68579102 4.82055664 C50.40784164 4.81755554 49.12989227 4.81455444 47.81321716 4.8114624 C46.41274617 4.82346722 45.0122792 4.83595016 43.61181641 4.84887695 C42.1821767 4.85193362 40.75253402 4.85381044 39.32289124 4.85455322 C36.32590348 4.8591589 33.32918404 4.87359571 30.33227539 4.89575195 C26.48286826 4.92406016 22.63367243 4.9349656 18.7841711 4.93943405 C15.83229949 4.94358246 12.88047097 4.95339464 9.92862129 4.96530914 C8.50878814 4.97102221 7.08895081 4.97577747 5.66911125 4.97957611 C3.68896896 4.98641949 1.70885765 5.00094608 -0.27124023 5.01586914 C-1.39994034 5.02269714 -2.52864044 5.02952515 -3.69154358 5.03656006 C-6.1639838 4.89064719 -6.1639838 4.89064719 -7.22802734 6.17700195 Z " fill="#000000" transform="translate(63.22802734375,37.822998046875)"/>
<path d="M0 0 C0.71353638 -0.0038269 1.42707275 -0.00765381 2.16223145 -0.01159668 C3.66497211 -0.01430847 5.16776056 -0.00699854 6.67041016 0.00976562 C8.96233987 0.03119008 11.25113579 0.00994361 13.54296875 -0.015625 C15.00781937 -0.01298159 16.47266806 -0.00785632 17.9375 0 C18.95801453 -0.01214539 18.95801453 -0.01214539 19.99914551 -0.02453613 C23.24467539 0.03899028 25.48791459 0.54075414 28.40234375 1.98608398 C31.47410625 5.76953437 31.15217257 9.04443527 31.0625 13.78515625 C31.06254028 14.68241928 31.06258057 15.57968231 31.06262207 16.50413513 C31.05726775 18.39792906 31.03968864 20.29172248 31.01074219 22.18530273 C30.9688458 25.08711442 30.96967683 27.98660844 30.9765625 30.88867188 C30.96607132 32.72918282 30.95313361 34.5696818 30.9375 36.41015625 C30.93729858 37.27894913 30.93709717 38.147742 30.93688965 39.04286194 C30.92097778 39.85057541 30.90506592 40.65828888 30.88867188 41.49047852 C30.88025269 42.20011246 30.8718335 42.9097464 30.86315918 43.6408844 C30.34791738 46.11038925 29.43035227 46.98446484 27.46875 48.53125 C22.27537681 50.2623744 16.70965794 49.75671607 11.27246094 49.77148438 C9.10833215 49.78118464 6.94515581 49.81221767 4.78125 49.84375 C3.39844312 49.85028127 2.01562947 49.85553126 0.6328125 49.859375 C-1.24736572 49.87339355 -1.24736572 49.87339355 -3.16552734 49.88769531 C-7.07353358 49.47381971 -9.73366585 48.32883415 -12.53125 45.53125 C-12.61825342 43.89652118 -12.63826063 42.25810945 -12.62890625 40.62109375 C-12.62568359 39.63173828 -12.62246094 38.64238281 -12.61914062 37.62304688 C-12.61076172 36.58212891 -12.60238281 35.54121094 -12.59375 34.46875 C-12.58923828 33.42396484 -12.58472656 32.37917969 -12.58007812 31.30273438 C-12.56824913 28.7121834 -12.55176689 26.12174441 -12.53125 23.53125 C-11.21125 23.53125 -9.89125 23.53125 -8.53125 23.53125 C-8.47066406 24.80742188 -8.41007813 26.08359375 -8.34765625 27.3984375 C-8.26325432 29.06772016 -8.17860614 30.73699037 -8.09375 32.40625 C-8.05443359 33.24800781 -8.01511719 34.08976562 -7.97460938 34.95703125 C-7.93271484 35.76269531 -7.89082031 36.56835938 -7.84765625 37.3984375 C-7.81099854 38.14206543 -7.77434082 38.88569336 -7.73657227 39.65185547 C-7.63169135 41.61989312 -7.63169135 41.61989312 -6.53125 43.53125 C3.69875 43.53125 13.92875 43.53125 24.46875 43.53125 C25.96516368 40.53842264 25.61097979 37.46846394 25.6015625 34.1875 C25.60251923 33.46260376 25.60347595 32.73770752 25.60446167 31.99084473 C25.60514243 30.45760003 25.60329536 28.92435245 25.59912109 27.39111328 C25.59377134 25.04062442 25.59906953 22.69032665 25.60546875 20.33984375 C25.60480795 18.85156208 25.60352675 17.36328052 25.6015625 15.875 C25.60358673 15.16976196 25.60561096 14.46452393 25.60769653 13.73791504 C25.64369742 10.00995629 25.64369742 10.00995629 24.46875 6.53125 C14.23875 6.53125 4.00875 6.53125 -6.53125 6.53125 C-7.74818876 8.96512753 -7.85084896 10.94963846 -8.09375 13.65625 C-8.17753906 14.56632812 -8.26132813 15.47640625 -8.34765625 16.4140625 C-8.40824219 17.11273438 -8.46882812 17.81140625 -8.53125 18.53125 C-9.85125 18.53125 -11.17125 18.53125 -12.53125 18.53125 C-12.66651139 16.28290504 -12.76335804 14.03222486 -12.84375 11.78125 C-12.93076172 9.90179688 -12.93076172 9.90179688 -13.01953125 7.984375 C-12.53125 4.53125 -12.53125 4.53125 -10.47143555 2.34863281 C-6.90520349 0.14427913 -4.06812303 -0.0484157 0 0 Z " fill="#000000" transform="translate(13.53125,37.46875)"/>
<path d="M0 0 C40.92 0 81.84 0 124 0 C124.495 2.475 124.495 2.475 125 5 C83.42 5 41.84 5 -1 5 C-0.67 3.35 -0.34 1.7 0 0 Z " fill="#000000" transform="translate(2,26)"/>
<path d="M0 0 C0.89203125 0.03609375 1.7840625 0.0721875 2.703125 0.109375 C3.71632813 0.17898437 3.71632813 0.17898437 4.75 0.25 C4.75 1.57 4.75 2.89 4.75 4.25 C3.75 5.25 3.75 5.25 1.90234375 5.34765625 C-0.1484375 5.31510417 -2.19921875 5.28255208 -4.25 5.25 C-4.27894547 8.70831586 -4.29678 12.16660072 -4.3125 15.625 C-4.32087891 16.60984375 -4.32925781 17.5946875 -4.33789062 18.609375 C-4.34272461 20.02089844 -4.34272461 20.02089844 -4.34765625 21.4609375 C-4.35551147 22.76490479 -4.35551147 22.76490479 -4.36352539 24.09521484 C-4.39122351 26.30049994 -4.39122351 26.30049994 -3.25 28.25 C6.98 28.25 17.21 28.25 27.75 28.25 C28.9763757 25.79724859 28.86415314 24.1994219 28.84765625 21.4609375 C28.84443359 20.51992187 28.84121094 19.57890625 28.83789062 18.609375 C28.82951172 17.62453125 28.82113281 16.6396875 28.8125 15.625 C28.80798828 14.63242188 28.80347656 13.63984375 28.79882812 12.6171875 C28.78702145 10.1613984 28.770554 7.70572896 28.75 5.25 C26.94402344 5.26740234 26.94402344 5.26740234 25.1015625 5.28515625 C23.52604321 5.29453434 21.95052225 5.30363452 20.375 5.3125 C19.18390625 5.32506836 19.18390625 5.32506836 17.96875 5.33789062 C11.9765625 5.36328125 11.9765625 5.36328125 9.75 4.25 C9.75 2.93 9.75 1.61 9.75 0.25 C12.99969769 0.13361964 16.2488583 0.06269419 19.5 0 C20.42039062 -0.03351563 21.34078125 -0.06703125 22.2890625 -0.1015625 C23.17851563 -0.11445312 24.06796875 -0.12734375 24.984375 -0.140625 C25.80131836 -0.16157227 26.61826172 -0.18251953 27.45996094 -0.20410156 C30.68521433 0.43544762 31.81265707 1.6243941 33.75 4.25 C34.25170898 7.04321289 34.25170898 7.04321289 34.24609375 10.22265625 C34.24673828 11.36927734 34.24738281 12.51589844 34.24804688 13.69726562 C34.22806641 14.89029297 34.20808594 16.08332031 34.1875 17.3125 C34.19458984 18.50939453 34.20167969 19.70628906 34.20898438 20.93945312 C34.14615374 29.5279176 34.14615374 29.5279176 32.74047852 32.09008789 C29.51313101 33.97076102 26.10146172 33.67656009 22.46875 33.6484375 C21.2539093 33.65274277 21.2539093 33.65274277 20.01452637 33.65713501 C18.30313416 33.65917542 16.59171862 33.65364709 14.88037109 33.64111328 C12.2595611 33.62505857 9.64029323 33.64096194 7.01953125 33.66015625 C5.35676743 33.65817381 3.69400456 33.65433013 2.03125 33.6484375 C1.24681519 33.65451019 0.46238037 33.66058289 -0.3458252 33.6668396 C-5.65250727 33.59817711 -5.65250727 33.59817711 -8.24047852 32.09008789 C-10.6181873 27.75616017 -9.71597536 22.11965818 -9.6875 17.3125 C-9.70748047 16.11947266 -9.72746094 14.92644531 -9.74804688 13.69726562 C-9.74740234 12.55064453 -9.74675781 11.40402344 -9.74609375 10.22265625 C-9.74794678 9.17343994 -9.7497998 8.12422363 -9.75170898 7.04321289 C-8.73941201 1.40735414 -5.39556507 -0.28397711 0 0 Z " fill="#000000" transform="translate(10.25,94.75)"/>
<path d="M0 0 C5.00330085 2.84163131 8.92457418 6.96122253 10.75 12.4375 C11.41134489 19.75566066 11.49090673 26.48380318 6.75 32.4375 C1.12753535 37.5488315 -3.87310762 38.80426622 -11.39453125 38.71484375 C-17.2252133 38.14852579 -21.39596677 35.7197523 -25.1875 31.3125 C-28.08582586 27.27240941 -28.35740926 25.37832606 -28.25 20.4375 C-26.93 20.4375 -25.61 20.4375 -24.25 20.4375 C-24.03085938 20.96859375 -23.81171875 21.4996875 -23.5859375 22.046875 C-21.3255761 27.08215161 -19.35566268 29.88466866 -14.25 32.4375 C-9.68852846 33.92493637 -6.45448821 33.33912142 -2.1484375 31.5078125 C1.60836988 29.38977706 4.03103535 26.63458451 5.37890625 22.515625 C6.31007822 17.45789091 5.34879396 13.94207619 2.75 9.4375 C-2.09730292 4.94487778 -5.24629406 4.06550322 -11.7109375 4.16796875 C-15.55987958 4.57654875 -17.46142308 5.78171245 -20.25 8.4375 C-21.82434395 11.01548821 -23.0986189 13.64709405 -24.25 16.4375 C-25.57 16.4375 -26.89 16.4375 -28.25 16.4375 C-28.88862405 12.18000636 -28.1379838 9.75894149 -25.75 6.3125 C-19.19497185 -1.68218386 -9.63323057 -4.24671042 0 0 Z " fill="#000000" transform="translate(98.25,53.5625)"/>
<path d="M0 0 C1.27362648 -0.00574036 1.27362648 -0.00574036 2.57298279 -0.01159668 C4.362388 -0.01431112 6.15183322 -0.00698266 7.94116211 0.00976562 C10.67847061 0.03120987 13.41316266 0.0099359 16.15039062 -0.015625 C17.89193287 -0.01298216 19.63347348 -0.00785808 21.375 0 C22.60012047 -0.01214539 22.60012047 -0.01214539 23.84999084 -0.02453613 C27.44806835 0.03481595 29.66082619 0.19433867 32.60522461 2.34960938 C34.77327122 5.46986457 35.12109375 7.74945156 35.12109375 11.53125 C33.54356762 14.21888712 32.44034192 16.04092364 29.45263672 17.15136719 C26.1414212 17.69086995 22.84994793 17.71418267 19.50390625 17.734375 C18.40174271 17.74292511 18.40174271 17.74292511 17.27731323 17.75164795 C15.72574289 17.76107373 14.17415276 17.76762229 12.62255859 17.77148438 C10.26103472 17.7811886 7.90038233 17.81223291 5.5390625 17.84375 C4.02734889 17.85028112 2.51562909 17.85553116 1.00390625 17.859375 C-0.0463826 17.8778952 -0.0463826 17.8778952 -1.1178894 17.89678955 C-5.76447873 17.8758934 -8.93837369 16.99155591 -12.87890625 14.53125 C-14.44591067 11.39724115 -14.73055186 7.89969905 -13.87890625 4.53125 C-9.57572551 -0.02955852 -5.90163009 -0.05865191 0 0 Z M-7.87890625 5.53125 C-8.53890625 6.85125 -9.19890625 8.17125 -9.87890625 9.53125 C-8.87263804 11.17285805 -8.87263804 11.17285805 -6.87890625 12.53125 C-4.17367072 12.81724544 -1.70351962 12.92800519 1 12.89453125 C1.76787338 12.89502975 2.53574677 12.89552826 3.32688904 12.89604187 C4.94833975 12.89370333 6.56979423 12.88398769 8.19116211 12.86743164 C10.67790018 12.8438041 13.16356858 12.84687623 15.65039062 12.85351562 C17.22526683 12.84793994 18.80013851 12.84083075 20.375 12.83203125 C21.12084854 12.83294266 21.86669708 12.83385406 22.63514709 12.83479309 C26.83621354 12.91350933 26.83621354 12.91350933 30.12109375 10.53125 C29.71580474 7.74887345 29.71580474 7.74887345 28.12109375 5.53125 C25.45483345 5.44269839 22.81462261 5.41600327 20.1484375 5.43359375 C18.9519735 5.43571617 18.9519735 5.43571617 17.7313385 5.43788147 C15.1737194 5.44349684 12.61618657 5.45605188 10.05859375 5.46875 C8.3287773 5.47376302 6.59895949 5.47832627 4.86914062 5.48242188 C0.61975822 5.49347125 -3.62955937 5.51074614 -7.87890625 5.53125 Z " fill="#000000" transform="translate(78.87890625,98.46875)"/>
<path d="M0 0 C3.25696479 0.41755959 4.63443291 0.63443291 7 3 C7.66 2.01 8.32 1.02 9 0 C10.65 0.33 12.3 0.66 14 1 C13.690625 1.7425 13.38125 2.485 13.0625 3.25 C12.711875 4.1575 12.36125 5.065 12 6 C11.731875 6.680625 11.46375 7.36125 11.1875 8.0625 C10.91857123 10.84143063 12.35192342 11.82453891 14 14 C14.1875 16.75 14.1875 16.75 14 19 C11.11424181 18.60196439 10.17810487 18.20990931 8.25 15.9375 C7.8375 15.298125 7.425 14.65875 7 14 C6.13375 15.2375 6.13375 15.2375 5.25 16.5 C4.5075 17.325 3.765 18.15 3 19 C1.68 19 0.36 19 -1 19 C-1.25864514 15.89625829 -1.35783722 14.47234514 0.5625 11.9375 C2.23203865 10.13967375 2.23203865 10.13967375 1.8125 8.0625 C1.544375 7.381875 1.27625 6.70125 1 6 C0.649375 5.0925 0.29875 4.185 -0.0625 3.25 C-0.5265625 2.13625 -0.5265625 2.13625 -1 1 C-0.67 0.67 -0.34 0.34 0 0 Z " fill="#000000" transform="translate(59,0)"/>
<path d="M0 0 C1.32 0 2.64 0 4 0 C4.33 3.96 4.66 7.92 5 12 C6.32 12.33 7.64 12.66 9 13 C9.33 8.71 9.66 4.42 10 0 C11.65 0.33 13.3 0.66 15 1 C15.08160748 2.89510699 15.13946459 4.79124504 15.1875 6.6875 C15.22230469 7.74324219 15.25710937 8.79898437 15.29296875 9.88671875 C14.96323813 13.39065615 14.08584712 15.19698511 12 18 C9.15916359 19.42041821 7.14522722 19.31452272 4 19 C1.8203125 17.46484375 1.8203125 17.46484375 0 15 C-0.2911521 12.26317029 -0.38322418 9.96059961 -0.25 7.25 C-0.23195312 6.55261719 -0.21390625 5.85523438 -0.1953125 5.13671875 C-0.14838554 3.42388461 -0.07664605 1.71176176 0 0 Z " fill="#000000" transform="translate(1,0)"/>
<path d="M0 0 C1.32 0 2.64 0 4 0 C4.33 4.29 4.66 8.58 5 13 C6.32 13.33 7.64 13.66 9 14 C9.33 9.38 9.66 4.76 10 0 C11.32 0 12.64 0 14 0 C14.10792837 2.60527105 14.18724878 5.20608311 14.25 7.8125 C14.30027344 8.91948242 14.30027344 8.91948242 14.3515625 10.04882812 C14.45040962 15.51013142 14.45040962 15.51013142 12.171875 17.98828125 C9.22859124 19.35934329 7.21241195 19.40155149 4 19 C1.56576737 17.68419858 0.3046944 16.89416853 -0.59765625 14.24609375 C-1.07747147 11.56751362 -1.13226483 9.03317824 -1.125 6.3125 C-1.12757812 5.33925781 -1.13015625 4.36601563 -1.1328125 3.36328125 C-1 1 -1 1 0 0 Z " fill="#000000" transform="translate(42,0)"/>
<path d="M0 0 C6.27 0 12.54 0 19 0 C19.33 1.32 19.66 2.64 20 4 C19 5 19 5 17.05053711 5.11352539 C16.2178833 5.10828857 15.38522949 5.10305176 14.52734375 5.09765625 C13.62822266 5.09443359 12.72910156 5.09121094 11.80273438 5.08789062 C10.85720703 5.07951172 9.91167969 5.07113281 8.9375 5.0625 C7.98810547 5.05798828 7.03871094 5.05347656 6.06054688 5.04882812 C3.70696935 5.0370011 1.35351523 5.02052025 -1 5 C-0.67 3.35 -0.34 1.7 0 0 Z " fill="#000000" transform="translate(13,109)"/>
<path d="M0 0 C1.32 0 2.64 0 4 0 C3.67422369 7.16707877 0.34556372 12.76927124 -3 19 C-4.32 18.67 -5.64 18.34 -7 18 C-6.34422814 13.97594538 -5.08843632 10.49944851 -3.5 6.75 C-3.0565625 5.69296875 -2.613125 4.6359375 -2.15625 3.546875 C-1 1 -1 1 0 0 Z " fill="#000000" transform="translate(34,0)"/>
<path d="M0 0 C5.28 0 10.56 0 16 0 C16.33 1.32 16.66 2.64 17 4 C16 5 16 5 12.40234375 5.09765625 C10.91403133 5.0909822 9.42573568 5.07902183 7.9375 5.0625 C7.17888672 5.05798828 6.42027344 5.05347656 5.63867188 5.04882812 C3.75908129 5.0370068 1.87953101 5.01907078 0 5 C0 3.35 0 1.7 0 0 Z " fill="#000000" transform="translate(110,14)"/>
<path d="M0 0 C5.61 0 11.22 0 17 0 C16.67 1.65 16.34 3.3 16 5 C11.05 5 6.1 5 1 5 C0.67 3.35 0.34 1.7 0 0 Z " fill="#000000" transform="translate(110,7)"/>
<path d="M0 0 C1.32 0 2.64 0 4 0 C4 6.27 4 12.54 4 19 C2.68 19 1.36 19 0 19 C0 12.73 0 6.46 0 0 Z " fill="#000000" transform="translate(19,0)"/>
<path d="M0 0 C1.79244141 0.01740234 1.79244141 0.01740234 3.62109375 0.03515625 C5.41740234 0.04869141 5.41740234 0.04869141 7.25 0.0625 C8.17683594 0.07410156 9.10367188 0.08570312 10.05859375 0.09765625 C10.62109375 2.03515625 10.62109375 2.03515625 11.05859375 4.09765625 C10.05859375 5.09765625 10.05859375 5.09765625 7.1171875 5.1953125 C5.32474609 5.17791016 5.32474609 5.17791016 3.49609375 5.16015625 C1.69978516 5.14662109 1.69978516 5.14662109 -0.1328125 5.1328125 C-1.05964844 5.12121094 -1.98648437 5.10960938 -2.94140625 5.09765625 C-3.50390625 3.16015625 -3.50390625 3.16015625 -3.94140625 1.09765625 C-2.94140625 0.09765625 -2.94140625 0.09765625 0 0 Z " fill="#000000" transform="translate(23.94140625,69.90234375)"/>
<path d="M0 0 C1.79244141 0.01740234 1.79244141 0.01740234 3.62109375 0.03515625 C5.41740234 0.04869141 5.41740234 0.04869141 7.25 0.0625 C8.17683594 0.07410156 9.10367188 0.08570313 10.05859375 0.09765625 C10.62109375 2.03515625 10.62109375 2.03515625 11.05859375 4.09765625 C10.05859375 5.09765625 10.05859375 5.09765625 7.1171875 5.1953125 C5.32474609 5.17791016 5.32474609 5.17791016 3.49609375 5.16015625 C1.69978516 5.14662109 1.69978516 5.14662109 -0.1328125 5.1328125 C-1.05964844 5.12121094 -1.98648437 5.10960938 -2.94140625 5.09765625 C-3.50390625 3.16015625 -3.50390625 3.16015625 -3.94140625 1.09765625 C-2.94140625 0.09765625 -2.94140625 0.09765625 0 0 Z " fill="#000000" transform="translate(23.94140625,59.90234375)"/>
<path d="M0 0 C1.79244141 0.01740234 1.79244141 0.01740234 3.62109375 0.03515625 C5.41740234 0.04869141 5.41740234 0.04869141 7.25 0.0625 C8.17683594 0.07410156 9.10367188 0.08570313 10.05859375 0.09765625 C10.62109375 2.03515625 10.62109375 2.03515625 11.05859375 4.09765625 C10.05859375 5.09765625 10.05859375 5.09765625 7.1171875 5.1953125 C5.32474609 5.17791016 5.32474609 5.17791016 3.49609375 5.16015625 C1.69978516 5.14662109 1.69978516 5.14662109 -0.1328125 5.1328125 C-1.05964844 5.12121094 -1.98648437 5.10960937 -2.94140625 5.09765625 C-3.50390625 3.16015625 -3.50390625 3.16015625 -3.94140625 1.09765625 C-2.94140625 0.09765625 -2.94140625 0.09765625 0 0 Z " fill="#000000" transform="translate(23.94140625,49.90234375)"/>
<path d="M0 0 C5.61 0 11.22 0 17 0 C17 1.32 17 2.64 17 4 C11.39 4 5.78 4 0 4 C0 2.68 0 1.36 0 0 Z " fill="#000000" transform="translate(110,0)"/>
<path d="M0 0 C1.65 0.33 3.3 0.66 5 1 C4.67 2.32 4.34 3.64 4 5 C2.35 4.67 0.7 4.34 -1 4 C-0.67 2.68 -0.34 1.36 0 0 Z " fill="#000000" transform="translate(11,70)"/>
<path d="M0 0 C1.65 0.33 3.3 0.66 5 1 C4.67 2.32 4.34 3.64 4 5 C2.35 4.67 0.7 4.34 -1 4 C-0.67 2.68 -0.34 1.36 0 0 Z " fill="#000000" transform="translate(11,60)"/>
<path d="M0 0 C1.65 0.33 3.3 0.66 5 1 C4.67 2.32 4.34 3.64 4 5 C2.35 4.67 0.7 4.34 -1 4 C-0.67 2.68 -0.34 1.36 0 0 Z " fill="#000000" transform="translate(11,50)"/>
</svg>
