<?xml version="1.0" encoding="UTF-8"?>
<svg version="1.1" xmlns="http://www.w3.org/2000/svg" width="128" height="128">
<path d="M0 0 C1.28090012 -0.00788544 1.28090012 -0.00788544 2.587677 -0.01593018 C5.41410542 -0.0291483 8.23997197 -0.02038573 11.06640625 -0.01025391 C13.02791451 -0.01227412 14.98942205 -0.01518512 16.95092773 -0.01895142 C21.06338649 -0.02337723 25.17564987 -0.01693542 29.28808594 -0.00292969 C34.56442312 0.0141623 39.84030254 0.0043225 45.11662292 -0.01364708 C49.16747498 -0.02447796 53.21821818 -0.02104177 57.26907349 -0.0132637 C59.21477309 -0.01125977 61.16048252 -0.01372772 63.10617065 -0.02070236 C65.82365165 -0.02830538 68.54038715 -0.01672893 71.2578125 0 C72.06517853 -0.00607269 72.87254456 -0.01214539 73.70437622 -0.0184021 C79.11908399 0.04347775 79.11908399 0.04347775 81.63378906 1.7437439 C83.1227614 4.20428347 82.91667034 6.23486785 82.81640625 9.07568359 C82.77580078 10.56648437 82.77580078 10.56648437 82.734375 12.08740234 C82.69957031 12.84666016 82.66476563 13.60591797 82.62890625 14.38818359 C83.36496094 14.36498047 84.10101563 14.34177734 84.859375 14.31787109 C85.83519531 14.29982422 86.81101562 14.28177734 87.81640625 14.26318359 C88.77933594 14.23998047 89.74226563 14.21677734 90.734375 14.19287109 C93.79250405 14.39922258 95.90409229 15.00399746 98.62890625 16.38818359 C100.21457821 19.55952751 99.78512445 22.97902399 99.79003906 26.4621582 C99.79500397 27.29643845 99.79996887 28.13071869 99.80508423 28.99028015 C99.81971963 31.75703752 99.82650959 34.52373759 99.83203125 37.29052734 C99.83778089 39.20862327 99.84353864 41.12671918 99.8493042 43.04481506 C99.85981764 47.06902332 99.86565829 51.09321158 99.86914062 55.11743164 C99.8746308 60.28053328 99.89866853 65.44337191 99.92711258 70.60639095 C99.94571015 74.56886068 99.95094298 78.53126663 99.9524765 82.49377632 C99.9555093 84.39762373 99.96355885 86.30146985 99.97666168 88.20527458 C99.99366466 90.86532663 99.99185634 93.52473053 99.98535156 96.18481445 C99.99456635 96.97505005 100.00378113 97.76528564 100.01327515 98.57946777 C99.97280279 103.84713097 99.97280279 103.84713097 98.36314392 106.37960815 C96.2486682 107.6093175 94.96647437 107.75129961 92.5246582 107.72875977 C91.29372185 107.72841988 91.29372185 107.72841988 90.03791809 107.72807312 C89.156577 107.71258926 88.2752359 107.69710541 87.3671875 107.68115234 C86.008498 107.67478508 86.008498 107.67478508 84.62236023 107.66828918 C81.72840692 107.65149207 78.83514919 107.61383809 75.94140625 107.57568359 C73.97982776 107.56063808 72.01823836 107.54694945 70.05664062 107.53466797 C65.24712769 107.50158517 60.43813492 107.44979581 55.62890625 107.38818359 C56.52222656 109.08007812 56.52222656 109.08007812 57.43359375 110.80615234 C57.76858887 111.44061279 58.10358398 112.07507324 58.44873047 112.72875977 C60.29187585 115.32037316 62.63620299 115.67253716 65.62890625 116.38818359 C67.62890625 118.38818359 67.62890625 118.38818359 67.94140625 121.82568359 C67.62890625 125.38818359 67.62890625 125.38818359 66.46044922 127.08657837 C63.91315517 128.89683961 62.12268123 128.76904924 59.01171875 128.77636719 C57.8604248 128.78582367 56.70913086 128.79528015 55.52294922 128.80502319 C53.65727295 128.79591415 53.65727295 128.79591415 51.75390625 128.78662109 C50.47789551 128.78949127 49.20188477 128.79236145 47.88720703 128.7953186 C45.18686509 128.79736194 42.48733544 128.79331751 39.78710938 128.77929688 C36.32671395 128.76220448 32.86701654 128.77204667 29.40664673 128.79001427 C26.10570819 128.80346375 22.80485389 128.79404604 19.50390625 128.78662109 C18.26012207 128.79269379 17.01633789 128.79876648 15.73486328 128.80502319 C14.58356934 128.79556671 13.43227539 128.78611023 12.24609375 128.77636719 C11.23144043 128.77398041 10.21678711 128.77159363 9.17138672 128.76913452 C6.62890625 128.38818359 6.62890625 128.38818359 4.80126953 127.08267212 C2.83432073 124.23972043 3.2719977 121.7193301 3.62890625 118.38818359 C5.30094106 115.69434973 6.54461285 115.41101306 9.62890625 114.57568359 C13.56678278 113.0169408 13.94492459 111.14205937 15.62890625 107.38818359 C13.78945435 107.41174927 13.78945435 107.41174927 11.9128418 107.43579102 C7.36749833 107.49004971 2.82218355 107.52451888 -1.72338867 107.55297852 C-3.69153658 107.56807441 -5.65965081 107.58855307 -7.62768555 107.61450195 C-10.45499987 107.65085008 -13.28186985 107.66790173 -16.109375 107.68115234 C-16.99071609 107.6966362 -17.87205719 107.71212006 -18.78010559 107.72807312 C-19.60072983 107.72829971 -20.42135406 107.72852631 -21.2668457 107.72875977 C-22.34939384 107.73875252 -22.34939384 107.73875252 -23.45381165 107.74894714 C-25.37109375 107.38818359 -25.37109375 107.38818359 -27.1043396 106.37861633 C-29.12464274 103.20414281 -28.77873489 99.84561582 -28.7434082 96.20068359 C-28.7488842 94.94904419 -28.7488842 94.94904419 -28.75447083 93.67211914 C-28.76258473 90.91060103 -28.74895934 88.14966815 -28.734375 85.38818359 C-28.73385649 83.47151693 -28.73437383 81.55484973 -28.73588562 79.63818359 C-28.73579586 75.61987374 -28.72535849 71.60176436 -28.70727539 67.58349609 C-28.68458813 62.4282998 -28.68404372 57.27339653 -28.69079304 52.11816406 C-28.69413178 48.15996692 -28.6875047 44.20183679 -28.6776638 40.24365234 C-28.67380989 38.34261424 -28.67266438 36.44156869 -28.67424965 34.54052734 C-28.6746198 31.8854345 -28.66201427 29.23071974 -28.64575195 26.57568359 C-28.64822937 25.78701904 -28.65070679 24.99835449 -28.65325928 24.18579102 C-28.61604466 20.38593248 -28.53090935 18.62790699 -26.37109375 15.38818359 C-23.17806065 14.1519429 -20.01130915 14.28532389 -16.62109375 14.32568359 C-15.63625 14.33470703 -14.65140625 14.34373047 -13.63671875 14.35302734 C-12.51523437 14.37042969 -12.51523437 14.37042969 -11.37109375 14.38818359 C-11.42330078 13.24929688 -11.42330078 13.24929688 -11.4765625 12.08740234 C-11.50363281 11.09353516 -11.53070312 10.09966797 -11.55859375 9.07568359 C-11.59339844 8.08955078 -11.62820312 7.10341797 -11.6640625 6.08740234 C-11.37109375 3.38818359 -11.37109375 3.38818359 -10.37597656 1.7437439 C-7.17647976 -0.4195301 -3.73229087 -0.02807284 0 0 Z M-6.37109375 5.38818359 C-6.37109375 25.51818359 -6.37109375 45.64818359 -6.37109375 66.38818359 C-3.02374932 63.04083916 -0.25662825 60.11695306 2.546875 56.41162109 C3.24361328 55.49380859 3.94035156 54.57599609 4.65820312 53.63037109 C5.37041016 52.68419922 6.08261719 51.73802734 6.81640625 50.76318359 C7.54021484 49.80927734 8.26402344 48.85537109 9.00976562 47.87255859 C12.9249968 42.70598752 12.9249968 42.70598752 16.62890625 37.38818359 C18.796875 37.47802734 18.796875 37.47802734 21.62890625 38.38818359 C23.59684056 40.55147488 25.26044364 42.58737468 26.94140625 44.95068359 C27.39580078 45.56621094 27.85019531 46.18173828 28.31835938 46.81591797 C29.43414944 48.33104343 30.53320996 49.85846392 31.62890625 51.38818359 C35.16313347 49.9409161 36.80479419 48.19186807 39.01171875 45.10693359 C39.92630859 43.84429687 39.92630859 43.84429687 40.859375 42.55615234 C41.48457031 41.67572266 42.10976562 40.79529297 42.75390625 39.88818359 C44.00516594 38.14763295 45.25771074 36.40800521 46.51171875 34.66943359 C47.06230957 33.89664063 47.61290039 33.12384766 48.18017578 32.32763672 C49.62890625 30.38818359 49.62890625 30.38818359 51.62890625 28.38818359 C52.61890625 28.38818359 53.60890625 28.38818359 54.62890625 28.38818359 C56.49132758 30.68761403 58.1639553 32.94604496 59.81640625 35.38818359 C60.27982422 36.05591797 60.74324219 36.72365234 61.22070312 37.41162109 C62.36576122 39.06428226 63.4985089 40.72546028 64.62890625 42.38818359 C69.17985243 40.1127105 73.39534074 37.2105606 77.62890625 34.38818359 C77.62890625 24.81818359 77.62890625 15.24818359 77.62890625 5.38818359 C49.90890625 5.38818359 22.18890625 5.38818359 -6.37109375 5.38818359 Z M-23.37109375 20.38818359 C-23.37109375 43.81818359 -23.37109375 67.24818359 -23.37109375 91.38818359 C-20.40109375 91.71818359 -17.43109375 92.04818359 -14.37109375 92.38818359 C-14.04109375 93.70818359 -13.71109375 95.02818359 -13.37109375 96.38818359 C-16.67109375 96.38818359 -19.97109375 96.38818359 -23.37109375 96.38818359 C-23.37109375 98.03818359 -23.37109375 99.68818359 -23.37109375 101.38818359 C-21.7679834 102.99129395 -20.07365919 102.51418628 -17.85375977 102.51516724 C-16.87778839 102.51798706 -15.90181702 102.52080688 -14.89627075 102.52371216 C-13.8167514 102.52168793 -12.73723206 102.5196637 -11.625 102.51757812 C-9.93006912 102.5202066 -9.93006912 102.5202066 -8.20089722 102.52288818 C-4.44511402 102.52730941 -0.68937747 102.52436775 3.06640625 102.52099609 C5.66333017 102.52166905 8.26025403 102.52263901 10.85717773 102.52389526 C16.30811214 102.5253726 21.75902883 102.52331111 27.20996094 102.51855469 C33.52029854 102.5131121 39.83060384 102.51487477 46.14094067 102.52038109 C52.20058325 102.52545791 58.26020997 102.52493068 64.31985474 102.52199936 C66.90357467 102.52132982 69.48729542 102.52215944 72.0710144 102.52447891 C75.67496968 102.52700384 79.27886195 102.52316709 82.8828125 102.51757812 C83.96233185 102.51960236 85.0418512 102.52162659 86.15408325 102.52371216 C87.61804031 102.51948242 87.61804031 102.51948242 89.11157227 102.51516724 C89.96477554 102.51479021 90.81797882 102.51441319 91.69703674 102.51402473 C93.63595451 102.60101804 93.63595451 102.60101804 94.62890625 101.38818359 C94.62890625 99.73818359 94.62890625 98.08818359 94.62890625 96.38818359 C60.30890625 96.38818359 25.98890625 96.38818359 -9.37109375 96.38818359 C-9.04109375 95.06818359 -8.71109375 93.74818359 -8.37109375 92.38818359 C42.61390625 91.89318359 42.61390625 91.89318359 94.62890625 91.38818359 C94.62890625 67.95818359 94.62890625 44.52818359 94.62890625 20.38818359 C90.66890625 20.38818359 86.70890625 20.38818359 82.62890625 20.38818359 C82.21645773 26.4198149 82.21645773 26.4198149 82.62890625 32.38818359 C85.36740372 34.99249538 85.36740372 34.99249538 88.62890625 36.38818359 C90.7081779 39.00987394 90.62958747 40.42565059 90.69140625 43.82568359 C90.34078125 45.00130859 89.99015625 46.17693359 89.62890625 47.38818359 C88.46746094 47.94248047 87.30601563 48.49677734 86.109375 49.06787109 C84.07879008 50.29109811 84.07879008 50.29109811 82.62890625 52.38818359 C81.63609665 57.9389096 81.78072931 63.45298358 81.87890625 69.07568359 C81.89764613 71.37564322 81.90642402 73.6747828 81.89862061 75.97480774 C81.89593593 77.40276442 81.90976815 78.83086675 81.94171143 80.25846863 C81.95019531 82.21118164 81.95019531 82.21118164 81.62890625 85.38818359 C77.84115297 87.91335244 74.82840372 87.66949249 70.44140625 87.64697266 C69.18976685 87.65222961 69.18976685 87.65222961 67.9128418 87.65759277 C65.15144561 87.66640358 62.3903051 87.66056324 59.62890625 87.65380859 C57.71223908 87.65515543 55.79557225 87.65709612 53.87890625 87.65960693 C49.86064402 87.66255731 45.84247066 87.6582633 41.82421875 87.64892578 C36.66903611 87.63753131 31.51406171 87.64409124 26.35888672 87.65607071 C22.40070013 87.66329161 18.44256306 87.66100031 14.484375 87.65581512 C12.58333308 87.65447927 10.6822867 87.65612411 8.78125 87.66077423 C6.12618063 87.66584322 3.47145031 87.658124 0.81640625 87.64697266 C-0.36659058 87.65304535 -0.36659058 87.65304535 -1.57348633 87.65924072 C-5.37627539 87.6295943 -7.12848208 87.5499247 -10.37109375 85.38818359 C-10.76982117 82.68002319 -10.76982117 82.68002319 -10.8034668 79.19433594 C-10.82326096 77.89313812 -10.84305511 76.59194031 -10.8634491 75.25131226 C-10.87021942 73.82558333 -10.87666623 72.39985284 -10.8828125 70.97412109 C-10.899652 69.51964795 -10.91780125 68.06518942 -10.93721008 66.61074829 C-10.98479606 62.7803199 -11.01454939 58.94995075 -11.04064941 55.11932373 C-11.0704119 51.21142877 -11.11695688 47.30373817 -11.16210938 43.39599609 C-11.24824029 35.72680886 -11.31399076 28.05765196 -11.37109375 20.38818359 C-15.33109375 20.38818359 -19.29109375 20.38818359 -23.37109375 20.38818359 Z M51.62890625 35.38818359 C50.03370739 37.12874333 50.03370739 37.12874333 48.40625 39.40380859 C47.47522461 40.66257812 47.47522461 40.66257812 46.52539062 41.94677734 C45.87892578 42.83494141 45.23246094 43.72310547 44.56640625 44.63818359 C43.91607422 45.51087891 43.26574219 46.38357422 42.59570312 47.28271484 C38.68219351 52.39402437 38.68219351 52.39402437 36.62890625 58.38818359 C38.60890625 59.37818359 38.60890625 59.37818359 40.62890625 60.38818359 C43.81055707 58.32705818 46.97122847 56.23581591 50.12890625 54.13818359 C51.03511719 53.55166016 51.94132812 52.96513672 52.875 52.36083984 C53.73222656 51.78720703 54.58945313 51.21357422 55.47265625 50.62255859 C56.26865234 50.09887695 57.06464844 49.57519531 57.88476562 49.03564453 C58.46033203 48.49198242 59.03589844 47.94832031 59.62890625 47.38818359 C59.62890625 43.0718034 59.26455126 42.38160059 56.75390625 39.13818359 C56.22023438 38.43177734 55.6865625 37.72537109 55.13671875 36.99755859 C54.63914062 36.46646484 54.1415625 35.93537109 53.62890625 35.38818359 C52.96890625 35.38818359 52.30890625 35.38818359 51.62890625 35.38818359 Z M81.62890625 37.38818359 C80.63890625 37.88318359 80.63890625 37.88318359 79.62890625 38.38818359 C80.87867381 42.0413503 81.29989378 43.16884195 84.62890625 45.38818359 C85.28890625 44.39818359 85.94890625 43.40818359 86.62890625 42.38818359 C84.97890625 40.73818359 83.32890625 39.08818359 81.62890625 37.38818359 Z M74.62890625 42.38818359 C73.63890625 42.88318359 73.63890625 42.88318359 72.62890625 43.38818359 C73.87867381 47.0413503 74.29989378 48.16884195 77.62890625 50.38818359 C77.95890625 49.39818359 78.28890625 48.40818359 78.62890625 47.38818359 C76.75693171 44.69385043 76.75693171 44.69385043 74.62890625 42.38818359 Z M17.62890625 44.38818359 C16.18425966 45.86634454 16.18425966 45.86634454 14.72265625 47.83349609 C14.14789551 48.57438477 13.57313477 49.31527344 12.98095703 50.07861328 C12.36978027 50.88202148 11.75860352 51.68542969 11.12890625 52.51318359 C10.50612793 53.3269043 9.88334961 54.140625 9.24169922 54.97900391 C7.9720587 56.64469404 6.70627475 58.31333072 5.44433594 59.98486328 C4.29963837 61.50024828 3.14992032 63.01186617 1.99316406 64.51806641 C0.5644526 66.38027974 -0.8440688 68.25583528 -2.24609375 70.13818359 C-2.66826172 70.68490723 -3.09042969 71.23163086 -3.52539062 71.79492188 C-6.16909846 75.42048215 -6.90593299 77.92684164 -6.37109375 82.38818359 C-4.6307602 84.12851714 -2.37335828 83.51423194 -0.05395508 83.52371216 C0.70763916 83.52168793 1.4692334 83.5196637 2.25390625 83.51757812 C3.05223877 83.51933044 3.85057129 83.52108276 4.6730957 83.52288818 C7.32505435 83.52730727 9.97694687 83.52436852 12.62890625 83.52099609 C14.4635418 83.52166912 16.29817726 83.52263913 18.1328125 83.52389526 C21.98308153 83.52537231 25.83332741 83.52321746 29.68359375 83.51855469 C34.63047122 83.5128574 39.57729444 83.51613636 44.52416992 83.52212715 C48.3141318 83.52573258 52.10408071 83.52459427 55.89404297 83.52199936 C57.7185873 83.52133004 59.5431328 83.52215869 61.36767578 83.52447891 C63.91311786 83.52700513 66.45847084 83.52316529 69.00390625 83.51757812 C70.14629761 83.52061447 70.14629761 83.52061447 71.31176758 83.52371216 C74.75987174 83.82137454 74.75987174 83.82137454 77.62890625 82.38818359 C78.69578206 72.17530088 78.69578206 72.17530088 75.12890625 62.95068359 C74.30390625 62.10505859 73.47890625 61.25943359 72.62890625 60.38818359 C68.18604284 62.79758259 64.21246201 65.38524443 60.23828125 68.50024414 C51.62125812 75.22211053 43.81717988 79.1340685 32.62890625 78.38818359 C31.87890625 76.26318359 31.87890625 76.26318359 31.62890625 73.38818359 C32.9432232 71.37563577 34.2761251 69.37508091 35.62890625 67.38818359 C35.27934534 64.34501367 34.16303321 62.46527502 32.265625 60.11083984 C31.5530957 59.21655273 31.5530957 59.21655273 30.82617188 58.30419922 C30.32794922 57.69253906 29.82972656 57.08087891 29.31640625 56.45068359 C28.82978516 55.84289063 28.34316406 55.23509766 27.84179688 54.60888672 C26.88777215 53.41860284 25.92938945 52.23179649 24.96630859 51.04882812 C23.74882679 49.53708821 22.57125851 47.99342222 21.3984375 46.44677734 C20.81449219 45.76744141 20.23054688 45.08810547 19.62890625 44.38818359 C18.96890625 44.38818359 18.30890625 44.38818359 17.62890625 44.38818359 Z M67.62890625 47.38818359 C66.90356689 47.90203613 66.90356689 47.90203613 66.16357422 48.42626953 C63.94428529 49.99775741 61.72410303 51.56797863 59.50390625 53.13818359 C58.74335937 53.67701172 57.9828125 54.21583984 57.19921875 54.77099609 C53.04774206 57.70566065 48.8757244 60.59315312 44.62890625 63.38818359 C45.83921599 65.96145792 45.83921599 65.96145792 47.62890625 68.38818359 C51.83123906 68.38818359 52.44231929 68.15934767 55.6328125 65.83349609 C56.37337891 65.30111328 57.11394531 64.76873047 57.87695312 64.22021484 C58.64072266 63.65689453 59.40449219 63.09357422 60.19140625 62.51318359 C61.7134939 61.41155509 63.23562748 60.30999005 64.7578125 59.20849609 C65.4288501 58.71623535 66.0998877 58.22397461 66.79125977 57.71679688 C68.377494 56.56995395 70.00025674 55.47394993 71.62890625 54.38818359 C70.55489517 51.47301068 69.85080449 49.61008184 67.62890625 47.38818359 Z M76.62890625 56.38818359 C77.62890625 58.38818359 77.62890625 58.38818359 77.62890625 58.38818359 Z M40.62890625 68.38818359 C39.14390625 70.86318359 39.14390625 70.86318359 37.62890625 73.38818359 C39.60890625 73.05818359 41.58890625 72.72818359 43.62890625 72.38818359 C42.63890625 71.06818359 41.64890625 69.74818359 40.62890625 68.38818359 Z M20.62890625 107.38818359 C19.96890625 110.02818359 19.30890625 112.66818359 18.62890625 115.38818359 C29.84890625 115.38818359 41.06890625 115.38818359 52.62890625 115.38818359 C51.96890625 112.74818359 51.30890625 110.10818359 50.62890625 107.38818359 C40.72890625 107.38818359 30.82890625 107.38818359 20.62890625 107.38818359 Z M8.62890625 120.38818359 C8.62890625 121.37818359 8.62890625 122.36818359 8.62890625 123.38818359 C26.44890625 123.38818359 44.26890625 123.38818359 62.62890625 123.38818359 C62.62890625 122.39818359 62.62890625 121.40818359 62.62890625 120.38818359 C44.80890625 120.38818359 26.98890625 120.38818359 8.62890625 120.38818359 Z " fill="#000000" transform="translate(28.37109375,-0.38818359375)"/>
<path d="M0 0 C3.2403811 2.41304976 4.6743756 4.06382984 6 7.875 C6 12.68295519 4.45633282 16.26360318 1.375 19.9375 C-2.42329781 21.63673849 -5.92305917 21.73356721 -10 21 C-12.93555578 19.68448123 -13.8299948 18.60400624 -16 16 C-17.4949461 11.88678671 -17.26538023 8.82736188 -15.9375 4.6875 C-11.83154213 -1.00786091 -6.45150829 -2.16377747 0 0 Z M-8.8125 5 C-11.29289205 6.85476368 -11.29289205 6.85476368 -11.5 10 C-11.21040477 12.93663262 -11.21040477 12.93663262 -9.8125 14.875 C-7.34492892 16.40659584 -5.85480169 16.42822025 -3 16 C-0.98048938 15.06402685 -0.98048938 15.06402685 0 13 C-0.23477199 9.35458155 -0.23477199 9.35458155 -1 6 C-4.14884436 4.29062735 -5.36408666 3.77389748 -8.8125 5 Z " fill="#000000" transform="translate(44,11)"/>
</svg>
