<?xml version="1.0" encoding="UTF-8"?>
<svg version="1.1" xmlns="http://www.w3.org/2000/svg" width="128" height="128">
<path d="M0 0 C0.99 0 1.98 0 3 0 C3.04629168 7.65807215 3.08185303 15.31612984 3.10362434 22.97430992 C3.11407224 26.53012399 3.12824959 30.0858425 3.15087891 33.64160156 C3.17671832 37.727223 3.18646444 41.81274369 3.1953125 45.8984375 C3.20563507 47.17866791 3.21595764 48.45889832 3.22659302 49.77792358 C3.22674408 50.95899689 3.22689514 52.14007019 3.22705078 53.35693359 C3.231492 54.40062103 3.23593323 55.44430847 3.24050903 56.5196228 C3 59 3 59 1 61 C-1.125 61.625 -1.125 61.625 -3 62 C-2.01 62.5775 -1.02 63.155 0 63.75 C0.99 64.4925 1.98 65.235 3 66 C3 67.32 3 68.64 3 70 C-2.21136544 69.59912574 -5.57065081 67.64962904 -9.8515625 64.86328125 C-12.01447714 63.71315018 -12.01447714 63.71315018 -14.2734375 64.85546875 C-14.84320313 65.23316406 -15.41296875 65.61085938 -16 66 C-14.97608509 69.49837594 -13.76326921 72.52475658 -11.875 75.625 C-10 79 -10 79 -10 83 C-12.29296875 82.80859375 -12.29296875 82.80859375 -15 82 C-16.80078125 79.78515625 -16.80078125 79.78515625 -18.3125 77.0625 C-18.82425781 76.16660156 -19.33601563 75.27070312 -19.86328125 74.34765625 C-21 72 -21 72 -21 70 C-22.1446875 69.62875 -22.1446875 69.62875 -23.3125 69.25 C-26 68 -26 68 -27.34765625 65.96484375 C-28.85289694 63.7774128 -28.85289694 63.7774128 -31.4453125 63.42578125 C-32.32960938 63.38839844 -33.21390625 63.35101563 -34.125 63.3125 C-38.93129771 63.06870229 -38.93129771 63.06870229 -40 62 C-42.57517272 61.88557227 -45.12462955 61.83516706 -47.70092773 61.82641602 C-48.50740753 61.819729 -49.31388733 61.81304199 -50.14480591 61.80615234 C-51.90180873 61.79206913 -53.65883021 61.78018559 -55.41586113 61.77020454 C-58.19316754 61.75384987 -60.9703355 61.73061523 -63.74757385 61.70530701 C-71.64585523 61.63437345 -79.54419317 61.57433985 -87.44262695 61.52319336 C-92.2678725 61.491464 -97.09295971 61.45020375 -101.91807747 61.40299797 C-103.76130394 61.38694075 -105.60456695 61.37463648 -107.44784355 61.36609077 C-110.02195252 61.35398466 -112.59568684 61.3298554 -115.16967773 61.30297852 C-116.32070229 61.3020948 -116.32070229 61.3020948 -117.49497986 61.30119324 C-122.77210438 61.22789562 -122.77210438 61.22789562 -125 59 C-125.22705078 57.02880859 -125.22705078 57.02880859 -125.1953125 54.6484375 C-125.18564453 53.37226562 -125.18564453 53.37226562 -125.17578125 52.0703125 C-125.15902344 51.18085937 -125.14226562 50.29140625 -125.125 49.375 C-125.11597656 48.4778125 -125.10695313 47.580625 -125.09765625 46.65625 C-125.0740497 44.43723414 -125.0411231 42.21874923 -125 40 C-123.68 40 -122.36 40 -121 40 C-121 45.28 -121 50.56 -121 56 C-95.26 56 -69.52 56 -43 56 C-45.31 50.06 -47.62 44.12 -50 38 C-50 32 -50 32 -48 30 C-40.87428653 30.23121784 -35.09147438 32.20297774 -28.5625 34.9375 C-27.66595703 35.29779297 -26.76941406 35.65808594 -25.84570312 36.02929688 C-19.28687022 38.71312978 -19.28687022 38.71312978 -17 41 C-16.76171875 43.2421875 -16.76171875 43.2421875 -16.6875 45.875 C-16.3916235 50.22396803 -16.3916235 50.22396803 -13.4375 53.5 C-12.633125 53.995 -11.82875 54.49 -11 55 C-11 55.66 -11 56.32 -11 57 C-6.05 56.505 -6.05 56.505 -1 56 C-1.00222061 55.31317642 -1.00444122 54.62635284 -1.00672913 53.91871643 C-1.02877895 46.79794838 -1.04390533 39.67718996 -1.05493164 32.55639648 C-1.05997383 29.89558519 -1.06680736 27.23477668 -1.07543945 24.57397461 C-1.08751009 20.75894484 -1.09322929 16.94395156 -1.09765625 13.12890625 C-1.10281754 11.93100967 -1.10797882 10.7331131 -1.11329651 9.49891663 C-1.11337204 8.3978508 -1.11344757 7.29678497 -1.11352539 6.16235352 C-1.115746 5.18750504 -1.11796661 4.21265656 -1.12025452 3.20826721 C-1 1 -1 1 0 0 Z M-38 38 C-34.43940709 42.08420952 -32.35459638 43.39152314 -27 44 C-25.61874982 46.76250036 -25.80920694 48.94731099 -26 52 C-28 54 -28 54 -31 54.1875 C-34 54 -34 54 -36 53 C-36.103125 51.906875 -36.20625 50.81375 -36.3125 49.6875 C-36.65505939 45.85142341 -36.65505939 45.85142341 -39.5625 43.5625 C-40.366875 43.046875 -41.17125 42.53125 -42 42 C-41.45388522 47.18809037 -39.84540159 55.15459841 -36 59 C-31.05311987 59.64126224 -27.20771609 59.72462965 -22.875 57.125 C-20.24263844 52.73773073 -20.56382015 48.99183607 -21 44 C-29.20722026 39.79255062 -29.20722026 39.79255062 -38 38 Z M-32 47 C-32.33 47.99 -32.66 48.98 -33 50 C-32.01 50 -31.02 50 -30 50 C-30 49.01 -30 48.02 -30 47 C-30.66 47 -31.32 47 -32 47 Z M-20.625 59.375 C-23.22363777 61.65718683 -23.22363777 61.65718683 -23 64 C-20.13302508 62.71480435 -18.02392288 61.42870746 -16 59 C-16 58.34 -16 57.68 -16 57 C-18.34281317 56.77636223 -18.34281317 56.77636223 -20.625 59.375 Z " fill="#000000" transform="translate(125,45)"/>
<path d="M0 0 C1.34362885 0.00031689 2.68728332 0.01162897 4.03076172 0.03173828 C4.73820526 0.03456818 5.4456488 0.03739807 6.17453003 0.04031372 C8.43667432 0.05151941 10.69842437 0.07662399 12.96044922 0.10205078 C14.49299559 0.11208011 16.02554816 0.12120604 17.55810547 0.12939453 C21.31737223 0.15145992 25.07634386 0.18599183 28.83544922 0.22705078 C28.83544922 1.54705078 28.83544922 2.86705078 28.83544922 4.22705078 C19.26544922 4.55705078 9.69544922 4.88705078 -0.16455078 5.22705078 C-0.49455078 8.85705078 -0.82455078 12.48705078 -1.16455078 16.22705078 C38.43544922 16.22705078 78.03544922 16.22705078 118.83544922 16.22705078 C118.34044922 10.78205078 118.34044922 10.78205078 117.83544922 5.22705078 C90.11544922 4.89705078 62.39544922 4.56705078 33.83544922 4.22705078 C33.34044922 2.24705078 33.34044922 2.24705078 32.83544922 0.22705078 C44.27466558 0.18078234 55.71385981 0.1452096 67.15315056 0.12342644 C72.46443859 0.11297349 77.77566278 0.09878682 83.08691406 0.07617188 C88.20917517 0.05449726 93.33137472 0.04249355 98.45367813 0.0372963 C100.41137792 0.03359084 102.3690742 0.02635537 104.32674789 0.01559067 C107.06133142 0.00114721 109.79565812 -0.00093017 112.53027344 0 C113.34594788 -0.00719055 114.16162231 -0.0143811 115.00201416 -0.02178955 C120.6073449 -0.00105354 120.6073449 -0.00105354 122.83544922 2.22705078 C123.01084358 5.16801815 123.06677297 8.01358427 123.03076172 10.95361328 C123.02793182 11.81642914 123.02510193 12.679245 123.02218628 13.56820679 C123.01097254 16.32962798 122.98586606 19.09072728 122.96044922 21.85205078 C122.95042095 23.72183777 122.94129483 25.59162983 122.93310547 27.46142578 C122.91102934 32.05009187 122.87649156 36.63851671 122.83544922 41.22705078 C121.51544922 41.22705078 120.19544922 41.22705078 118.83544922 41.22705078 C118.83544922 34.29705078 118.83544922 27.36705078 118.83544922 20.22705078 C79.23544922 20.22705078 39.63544922 20.22705078 -1.16455078 20.22705078 C-1.16455078 40.35705078 -1.16455078 60.48705078 -1.16455078 81.22705078 C-2.48455078 81.22705078 -3.80455078 81.22705078 -5.16455078 81.22705078 C-5.21082461 70.9612907 -5.24639471 60.6955553 -5.26817513 50.4297123 C-5.2786269 45.66322784 -5.29281142 40.89681457 -5.31542969 36.13037109 C-5.33710851 31.53330152 -5.3491089 26.93630054 -5.35430527 22.33918381 C-5.35800997 20.58244115 -5.365244 18.82570237 -5.37601089 17.0689888 C-5.39046002 14.6145939 -5.39253151 12.16048505 -5.39160156 9.70605469 C-5.39879211 8.9745369 -5.40598267 8.2430191 -5.41339111 7.48933411 C-5.3841334 0.38630181 -5.3841334 0.38630181 0 0 Z " fill="#000000" transform="translate(5.16455078125,-0.22705078125)"/>
<path d="M0 0 C3.3 0 6.6 0 10 0 C13.29222682 3.29222682 13.61224068 4.44215237 14.375 8.875 C14.56835938 9.90367188 14.76171875 10.93234375 14.9609375 11.9921875 C15.00804745 15.61965379 14.234152 17.17950946 12 20 C8.49852959 21.1671568 5.67329964 21.13357453 2 21 C1.34 20.67 0.68 20.34 0 20 C0 13.4 0 6.8 0 0 Z M5 4 C5 4.99 5 5.98 5 7 C5.99 7 6.98 7 8 7 C7.67 6.01 7.34 5.02 7 4 C6.34 4 5.68 4 5 4 Z M5 12 C5 13.32 5 14.64 5 16 C6.65 15.67 8.3 15.34 10 15 C9.67 14.01 9.34 13.02 9 12 C7.68 12 6.36 12 5 12 Z " fill="#000000" transform="translate(22,41)"/>
<path d="M0 0 C5 1 5 1 6.58203125 2.84765625 C7.72135417 4.8984375 8.86067708 6.94921875 10 9 C10.33 6.03 10.66 3.06 11 0 C12.65 0.33 14.3 0.66 16 1 C16.08069658 3.95887459 16.14034665 6.9155659 16.1875 9.875 C16.21263672 10.71675781 16.23777344 11.55851562 16.26367188 12.42578125 C16.27333984 13.23144531 16.28300781 14.03710938 16.29296875 14.8671875 C16.3086792 15.61081543 16.32438965 16.35444336 16.34057617 17.12060547 C16.22818604 17.74080566 16.1157959 18.36100586 16 19 C15.01 19.66 14.02 20.32 13 21 C10.06799526 18.14723863 7.35684596 15.34920216 5 12 C4.67 14.64 4.34 17.28 4 20 C2.68 20 1.36 20 0 20 C0 13.4 0 6.8 0 0 Z " fill="#000000" transform="translate(73,41)"/>
<path d="M0 0 C4.80734552 0.03433818 4.80734552 0.03433818 7.75 2.1875 C10.44075507 6.16513794 10.68613329 9.58908282 10.1875 14.3125 C8.84385159 17.56554353 7.93182243 18.89004673 4.875 20.625 C1.147242 21.57861251 -2.29574038 22.07087981 -5.8125 20.3125 C-5.84138514 17.16668577 -5.85925923 14.02090531 -5.875 10.875 C-5.88337891 9.97716797 -5.89175781 9.07933594 -5.90039062 8.15429688 C-5.90361328 7.30029297 -5.90683594 6.44628906 -5.91015625 5.56640625 C-5.91801147 4.38026733 -5.91801147 4.38026733 -5.92602539 3.17016602 C-5.69692522 -0.57870113 -3.21333931 0.08939011 0 0 Z M-0.8125 4.3125 C-0.8125 8.2725 -0.8125 12.2325 -0.8125 16.3125 C0.8375 15.9825 2.4875 15.6525 4.1875 15.3125 C5.58685013 12.51379973 5.44015405 10.40751208 5.1875 7.3125 C3.99854764 5.37217596 3.99854764 5.37217596 2.1875 4.3125 C1.1975 4.3125 0.2075 4.3125 -0.8125 4.3125 Z " fill="#000000" transform="translate(95.8125,40.6875)"/>
<path d="M0 0 C3.26389153 0.04685012 4.46972346 0.17768595 7.3125 1.9375 C8.6875 4.3125 8.6875 4.3125 8.5625 7.375 C7.6875 10.3125 7.6875 10.3125 5.6875 13.3125 C6.6775 14.6325 7.6675 15.9525 8.6875 17.3125 C8.0275 18.6325 7.3675 19.9525 6.6875 21.3125 C1.8125 18.4375 1.8125 18.4375 0.6875 17.3125 C0.3575 18.3025 0.0275 19.2925 -0.3125 20.3125 C-1.3025 20.6425 -2.2925 20.9725 -3.3125 21.3125 C-3.9725 20.9825 -4.6325 20.6525 -5.3125 20.3125 C-5.34138514 17.16668577 -5.35925923 14.02090531 -5.375 10.875 C-5.38337891 9.97716797 -5.39175781 9.07933594 -5.40039062 8.15429688 C-5.40361328 7.30029297 -5.40683594 6.44628906 -5.41015625 5.56640625 C-5.41801147 4.38026733 -5.41801147 4.38026733 -5.42602539 3.17016602 C-5.20772323 -0.40200841 -3.10907869 0.09668166 0 0 Z M-0.3125 4.3125 C-0.3125 5.6325 -0.3125 6.9525 -0.3125 8.3125 C1.0075 7.9825 2.3275 7.6525 3.6875 7.3125 C3.6875 6.6525 3.6875 5.9925 3.6875 5.3125 C2.3675 4.9825 1.0475 4.6525 -0.3125 4.3125 Z " fill="#000000" transform="translate(43.3125,40.6875)"/>
<path d="M0 0 C2.29296875 0.0078125 2.29296875 0.0078125 5 1 C6.38668321 3.68914271 7.37664034 6.0353203 8.3125 8.875 C8.57611328 9.60847656 8.83972656 10.34195313 9.11132812 11.09765625 C10.1877637 14.16759459 11 16.72661348 11 20 C10.01 20.33 9.02 20.66 8 21 C7.62875 20.505 7.2575 20.01 6.875 19.5 C5.00363206 17.73485983 5.00363206 17.73485983 2 17.625 C-1.00363206 17.73485983 -1.00363206 17.73485983 -2.875 19.5 C-3.24625 19.995 -3.6175 20.49 -4 21 C-4.99 20.34 -5.98 19.68 -7 19 C-5.17778624 12.38757278 -2.94776396 6.19479329 0 0 Z M1 10 C1 10.66 1 11.32 1 12 C1.66 12 2.32 12 3 12 C3 11.34 3 10.68 3 10 C2.34 10 1.68 10 1 10 Z " fill="#000000" transform="translate(60,41)"/>
<path d="M0 0 C1.97909398 -0.02686553 3.95828971 -0.04633375 5.9375 -0.0625 C7.03964844 -0.07410156 8.14179687 -0.08570312 9.27734375 -0.09765625 C12 0 12 0 13 1 C13.2039085 2.95169561 13.3138543 4.91363424 13.375 6.875 C13.42398438 7.94492187 13.47296875 9.01484375 13.5234375 10.1171875 C13 13 13 13 10.671875 14.89453125 C7.2983812 16.29028965 5.47991066 15.98345301 2 15 C1.01 14.34 0.02 13.68 -1 13 C-1 11.68 -1 10.36 -1 9 C-1.66 9 -2.32 9 -3 9 C-2.30004181 5.85018814 -1.21744864 2.98423386 0 0 Z M3 4 C3 5.98 3 7.96 3 10 C4.98 10 6.96 10 9 10 C9 8.02 9 6.04 9 4 C7.02 4 5.04 4 3 4 Z " fill="#000000" transform="translate(107,24)"/>
<path d="M0 0 C1.65322266 0.01740234 1.65322266 0.01740234 3.33984375 0.03515625 C4.99693359 0.04869141 4.99693359 0.04869141 6.6875 0.0625 C7.54214844 0.07410156 8.39679687 0.08570312 9.27734375 0.09765625 C12.27734375 5.72265625 12.27734375 5.72265625 12.27734375 9.09765625 C11.61734375 9.09765625 10.95734375 9.09765625 10.27734375 9.09765625 C10.19484375 9.88140625 10.11234375 10.66515625 10.02734375 11.47265625 C9.27734375 14.09765625 9.27734375 14.09765625 7.58984375 15.47265625 C4.50053316 16.30760506 2.35875811 15.88440034 -0.72265625 15.09765625 C-1.71265625 14.43765625 -2.70265625 13.77765625 -3.72265625 13.09765625 C-4.05078125 10.3125 -4.05078125 10.3125 -3.97265625 7.03515625 C-3.9571875 5.95105469 -3.94171875 4.86695313 -3.92578125 3.75 C-3.65001563 0.14913735 -3.62320662 0.1299572 0 0 Z M0.27734375 4.09765625 C0.27734375 6.07765625 0.27734375 8.05765625 0.27734375 10.09765625 C2.25734375 10.09765625 4.23734375 10.09765625 6.27734375 10.09765625 C6.27734375 8.11765625 6.27734375 6.13765625 6.27734375 4.09765625 C4.29734375 4.09765625 2.31734375 4.09765625 0.27734375 4.09765625 Z " fill="#000000" transform="translate(11.72265625,23.90234375)"/>
<path d="M0 0 C1 1 1 1 1.1328125 3.6875 C1.13023438 4.780625 1.12765625 5.87375 1.125 7 C1.12886719 8.6396875 1.12886719 8.6396875 1.1328125 10.3125 C1 13 1 13 0 14 C-2.01964199 14.07244053 -4.04167124 14.08377188 -6.0625 14.0625 C-7.71958984 14.04896484 -7.71958984 14.04896484 -9.41015625 14.03515625 C-10.26480469 14.02355469 -11.11945313 14.01195313 -12 14 C-12.33 12.35 -12.66 10.7 -13 9 C-13.66 9 -14.32 9 -15 9 C-15 7.68 -15 6.36 -15 5 C-14.34 5 -13.68 5 -13 5 C-12.938125 4.21625 -12.87625 3.4325 -12.8125 2.625 C-12 0 -12 0 -9.875 -1.4375 C-6.08447034 -2.17912537 -3.5882926 -1.31110691 0 0 Z M-9 4 C-9 5.98 -9 7.96 -9 10 C-7.02 10 -5.04 10 -3 10 C-3 8.02 -3 6.04 -3 4 C-4.98 4 -6.96 4 -9 4 Z " fill="#000000" transform="translate(119,64)"/>
<path d="M0 0 C0.33 1.65 0.66 3.3 1 5 C1.66 5 2.32 5 3 5 C3 6.32 3 7.64 3 9 C2.34 9 1.68 9 1 9 C0.67 10.65 0.34 12.3 0 14 C-1.97909398 14.02686553 -3.95828971 14.04633375 -5.9375 14.0625 C-7.03964844 14.07410156 -8.14179688 14.08570312 -9.27734375 14.09765625 C-12 14 -12 14 -13 13 C-13.07244053 10.98035801 -13.08377188 8.95832876 -13.0625 6.9375 C-13.05347656 5.83277344 -13.04445313 4.72804688 -13.03515625 3.58984375 C-13.02355469 2.73519531 -13.01195312 1.88054687 -13 1 C-7.98302063 -2.18149912 -5.51154192 -2.09438593 0 0 Z M-9 4 C-9 5.98 -9 7.96 -9 10 C-7.02 10 -5.04 10 -3 10 C-3 8.02 -3 6.04 -3 4 C-4.98 4 -6.96 4 -9 4 Z " fill="#000000" transform="translate(21,64)"/>
<path d="M0 0 C1.98 0 3.96 0 6 0 C6.33 1.32 6.66 2.64 7 4 C1.25 5.125 1.25 5.125 -1 4 C-0.67 2.68 -0.34 1.36 0 0 Z " fill="#000000" transform="translate(94,29)"/>
<path d="M0 0 C1.98 0 3.96 0 6 0 C6.33 1.32 6.66 2.64 7 4 C1.25 5.125 1.25 5.125 -1 4 C-0.67 2.68 -0.34 1.36 0 0 Z " fill="#000000" transform="translate(83,29)"/>
<path d="M0 0 C1.98 0 3.96 0 6 0 C6.33 1.32 6.66 2.64 7 4 C1.25 5.125 1.25 5.125 -1 4 C-0.67 2.68 -0.34 1.36 0 0 Z " fill="#000000" transform="translate(72,29)"/>
<path d="M0 0 C1.98 0 3.96 0 6 0 C6.33 1.32 6.66 2.64 7 4 C1.25 5.125 1.25 5.125 -1 4 C-0.67 2.68 -0.34 1.36 0 0 Z " fill="#000000" transform="translate(61,29)"/>
<path d="M0 0 C1.98 0 3.96 0 6 0 C6.33 1.32 6.66 2.64 7 4 C1.25 5.125 1.25 5.125 -1 4 C-0.67 2.68 -0.34 1.36 0 0 Z " fill="#000000" transform="translate(50,29)"/>
<path d="M0 0 C1.98 0 3.96 0 6 0 C6.33 1.32 6.66 2.64 7 4 C1.25 5.125 1.25 5.125 -1 4 C-0.67 2.68 -0.34 1.36 0 0 Z " fill="#000000" transform="translate(39,29)"/>
<path d="M0 0 C1.98 0 3.96 0 6 0 C6.33 1.32 6.66 2.64 7 4 C1.25 5.125 1.25 5.125 -1 4 C-0.67 2.68 -0.34 1.36 0 0 Z " fill="#000000" transform="translate(28,29)"/>
<path d="M0 0 C1.98 0 3.96 0 6 0 C6.33 1.32 6.66 2.64 7 4 C4.36 4 1.72 4 -1 4 C-0.67 2.68 -0.34 1.36 0 0 Z " fill="#000000" transform="translate(83,69)"/>
<path d="M0 0 C1.98 0 3.96 0 6 0 C6.33 1.32 6.66 2.64 7 4 C4.36 4 1.72 4 -1 4 C-0.67 2.68 -0.34 1.36 0 0 Z " fill="#000000" transform="translate(72,69)"/>
<path d="M0 0 C1.98 0 3.96 0 6 0 C6.33 1.32 6.66 2.64 7 4 C4.36 4 1.72 4 -1 4 C-0.67 2.68 -0.34 1.36 0 0 Z " fill="#000000" transform="translate(61,69)"/>
<path d="M0 0 C1.98 0 3.96 0 6 0 C6.33 1.32 6.66 2.64 7 4 C4.36 4 1.72 4 -1 4 C-0.67 2.68 -0.34 1.36 0 0 Z " fill="#000000" transform="translate(50,69)"/>
<path d="M0 0 C1.98 0 3.96 0 6 0 C6.33 1.32 6.66 2.64 7 4 C4.36 4 1.72 4 -1 4 C-0.67 2.68 -0.34 1.36 0 0 Z " fill="#000000" transform="translate(39,69)"/>
<path d="M0 0 C1.98 0 3.96 0 6 0 C6 1.32 6 2.64 6 4 C3.69 4 1.38 4 -1 4 C-0.67 2.68 -0.34 1.36 0 0 Z " fill="#000000" transform="translate(94,69)"/>
<path d="M0 0 C1.98 0 3.96 0 6 0 C6.33 1.32 6.66 2.64 7 4 C4.69 4 2.38 4 0 4 C0 2.68 0 1.36 0 0 Z " fill="#000000" transform="translate(28,69)"/>
<path d="M0 0 C0.99 0.33 1.98 0.66 3 1 C3 2.98 3 4.96 3 7 C1.68 7 0.36 7 -1 7 C-1.04254356 5.00045254 -1.04080783 2.99958364 -1 1 C-0.67 0.67 -0.34 0.34 0 0 Z " fill="#000000" transform="translate(112,52)"/>
<path d="M0 0 C0.99 0.33 1.98 0.66 3 1 C3 2.98 3 4.96 3 7 C1.68 7 0.36 7 -1 7 C-1.04254356 5.00045254 -1.04080783 2.99958364 -1 1 C-0.67 0.67 -0.34 0.34 0 0 Z " fill="#000000" transform="translate(14,52)"/>
<path d="M0 0 C1.32 0 2.64 0 4 0 C4 2.31 4 4.62 4 7 C2.68 7 1.36 7 0 7 C0 4.69 0 2.38 0 0 Z " fill="#000000" transform="translate(111,43)"/>
<path d="M0 0 C1.32 0 2.64 0 4 0 C4 2.31 4 4.62 4 7 C2.68 7 1.36 7 0 7 C0 4.69 0 2.38 0 0 Z " fill="#000000" transform="translate(13,43)"/>
<path d="M0 0 C1.32 0 2.64 0 4 0 C4 1.32 4 2.64 4 4 C2.35 3.67 0.7 3.34 -1 3 C-0.67 2.01 -0.34 1.02 0 0 Z " fill="#000000" transform="translate(18,8)"/>
<path d="M0 0 C1.32 0 2.64 0 4 0 C4 1.32 4 2.64 4 4 C2.68 4 1.36 4 0 4 C0 2.68 0 1.36 0 0 Z " fill="#000000" transform="translate(26,8)"/>
<path d="M0 0 C1.32 0 2.64 0 4 0 C4 1.32 4 2.64 4 4 C2.68 4 1.36 4 0 4 C0 2.68 0 1.36 0 0 Z " fill="#000000" transform="translate(9,8)"/>
</svg>
