<?xml version="1.0" encoding="UTF-8"?>
<svg version="1.1" xmlns="http://www.w3.org/2000/svg" width="128" height="128">
<path d="M0 0 C1.10460571 -0.00525696 2.20921143 -0.01051392 3.34729004 -0.01593018 C6.99729568 -0.02913006 10.64686495 -0.02039175 14.296875 -0.01025391 C16.83365971 -0.01227463 19.37044385 -0.01518606 21.90722656 -0.01895142 C27.22336902 -0.02337477 32.53935518 -0.0172296 37.85546875 -0.00292969 C43.99549007 0.01339608 50.13521251 0.00810723 56.27522659 -0.0084089 C62.18965384 -0.02367949 68.10398848 -0.02204253 74.01843262 -0.0132637 C76.53186078 -0.01126158 79.04529656 -0.01372138 81.55871582 -0.02070236 C85.07059982 -0.02831578 88.58190885 -0.0167133 92.09375 0 C93.13390259 -0.00607269 94.17405518 -0.01214539 95.24572754 -0.0184021 C104.16435337 0.06028174 104.16435337 0.06028174 108.046875 3.38818359 C110.18446939 6.59457518 110.3007671 7.43231672 110.32102966 11.11911011 C110.33100479 12.09205017 110.34097992 13.06499023 110.35125732 14.06741333 C110.351922 15.13345795 110.35258667 16.19950256 110.35327148 17.29785156 C110.361595 18.42167236 110.36991852 19.54549316 110.37849426 20.70336914 C110.40264654 24.4290714 110.41137267 28.15459878 110.41796875 31.88037109 C110.42693077 34.46485447 110.43605252 37.0493373 110.44532776 39.63381958 C110.46183433 45.05602633 110.46955412 50.47816241 110.47241211 55.90039062 C110.4760472 62.16431356 110.50593981 68.42774646 110.54781669 74.69151962 C110.58670699 80.72022374 110.59800494 86.74865634 110.59913826 92.77750015 C110.60335056 95.34119449 110.61582495 97.90488888 110.63665581 100.46850204 C110.66346145 104.05267958 110.65877574 107.63550053 110.64624023 111.21972656 C110.66849167 112.81272079 110.66849167 112.81272079 110.69119263 114.43789673 C110.61929276 121.64419945 110.61929276 121.64419945 107.63441467 125.52371216 C104.23487581 127.9732758 102.62983923 128.51390935 98.51213074 128.52862549 C97.55739365 128.53433563 96.60265656 128.54004578 95.61898804 128.54592896 C94.56804962 128.54704681 93.51711121 128.54816467 92.43432617 128.54931641 C91.33015854 128.55428131 90.22599091 128.55924622 89.08836365 128.56436157 C85.42218409 128.57901053 81.75604781 128.58578986 78.08984375 128.59130859 C75.54877216 128.59705792 73.00770058 128.60281567 70.46662903 128.60858154 C65.81500835 128.61775383 61.16340072 128.62405089 56.51177329 128.62707829 C49.66728505 128.63155734 42.82299668 128.64909703 35.97856921 128.67807889 C30.04975777 128.70231149 24.12099604 128.7100232 18.19213295 128.71175385 C15.67032089 128.71478468 13.14850976 128.72282761 10.62672997 128.73593903 C7.10020121 128.75296496 3.57416043 128.7511274 0.04760742 128.74462891 C-0.9972583 128.75384369 -2.04212402 128.76305847 -3.11865234 128.77255249 C-12.21691158 128.71994682 -12.21691158 128.71994682 -15.953125 125.38818359 C-17.79544148 122.37253325 -18.20391018 120.11637488 -18.20709229 116.60620117 C-18.21273193 115.64726959 -18.21837158 114.68833801 -18.22418213 113.7003479 C-18.22013367 112.65502899 -18.21608521 111.60971008 -18.21191406 110.53271484 C-18.2154187 109.42664886 -18.21892334 108.32058289 -18.22253418 107.18099976 C-18.23134462 103.52083073 -18.22550464 99.86085462 -18.21875 96.20068359 C-18.22009684 93.66007449 -18.22203754 91.11946564 -18.22454834 88.57885742 C-18.22749868 83.2525768 -18.22339532 77.92636548 -18.21386719 72.60009766 C-18.20298307 66.4447971 -18.20650882 60.28962905 -18.21752 54.1343317 C-18.22769367 48.20977234 -18.22661159 42.28525411 -18.22075653 36.36068726 C-18.2194207 33.84085064 -18.22106543 31.32101066 -18.22571564 28.80117798 C-18.23078467 25.28191115 -18.22306502 21.76290009 -18.21191406 18.24365234 C-18.21596252 17.19833344 -18.22001099 16.15301453 -18.22418213 15.07601929 C-18.21572266 13.63762192 -18.21572266 13.63762192 -18.20709229 12.17016602 C-18.20633823 11.33837326 -18.20558418 10.50658051 -18.20480728 9.64958191 C-17.80991107 6.10138767 -16.66490141 4.02120832 -14.01269531 1.66244507 C-9.38132433 -0.26644593 -4.96914125 -0.02901119 0 0 Z M-9.953125 10.38818359 C-9.953125 16.98818359 -9.953125 23.58818359 -9.953125 30.38818359 C27.006875 30.38818359 63.966875 30.38818359 102.046875 30.38818359 C102.046875 23.78818359 102.046875 17.18818359 102.046875 10.38818359 C99.61989147 7.96120006 99.04047037 8.13737799 95.71972656 8.13421631 C94.81113892 8.12857666 93.90255127 8.12293701 92.96643066 8.11712646 C91.46710999 8.12319916 91.46710999 8.12319916 89.9375 8.12939453 C88.88703491 8.12588989 87.83656982 8.12238525 86.75427246 8.11877441 C83.26840685 8.10994381 79.78274281 8.115811 76.296875 8.12255859 C73.88313762 8.12121233 71.46940051 8.11927212 69.05566406 8.11676025 C63.99151025 8.11380718 58.92742689 8.11811254 53.86328125 8.12744141 C47.35941969 8.13883598 40.85572318 8.13227749 34.35186768 8.12029648 C29.36603544 8.11308284 24.38024258 8.11536353 19.39440918 8.12055206 C16.99572734 8.12188993 14.59704197 8.12023608 12.19836426 8.11559296 C8.85089595 8.1105359 5.50369807 8.11822653 2.15625 8.12939453 C1.15670288 8.12534607 0.15715576 8.12129761 -0.87268066 8.11712646 C-1.78126831 8.12276611 -2.68985596 8.12840576 -3.62597656 8.13421631 C-4.41796448 8.13497036 -5.20995239 8.13572441 -6.02593994 8.13650131 C-8.19151071 8.22017912 -8.19151071 8.22017912 -9.953125 10.38818359 Z M-9.953125 38.38818359 C-9.994375 51.54693359 -10.035625 64.70568359 -10.078125 78.26318359 C-10.09633301 82.42153809 -10.11454102 86.57989258 -10.13330078 90.86425781 C-10.13998872 94.58448626 -10.13998872 94.58448626 -10.14401245 98.30471802 C-10.14708815 99.96464102 -10.15413157 101.62455949 -10.16427612 103.28445435 C-10.17885839 105.79550975 -10.18093894 108.30629158 -10.18017578 110.81738281 C-10.187372 111.55965559 -10.19456821 112.30192837 -10.2019825 113.06669426 C-10.31433649 117.1805251 -10.31433649 117.1805251 -7.953125 120.38818359 C-5.95323868 120.69135517 -5.95323868 120.69135517 -3.62597656 120.64215088 C-2.26309509 120.65061035 -2.26309509 120.65061035 -0.87268066 120.65924072 C0.12686646 120.65519226 1.12641357 120.6511438 2.15625 120.64697266 C3.20671509 120.65047729 4.25718018 120.65398193 5.33947754 120.65759277 C8.82534315 120.66642338 12.31100719 120.66055619 15.796875 120.65380859 C18.21061238 120.65515486 20.62434949 120.65709507 23.03808594 120.65960693 C28.10223975 120.66256 33.16632311 120.65825465 38.23046875 120.64892578 C44.73433031 120.6375312 51.23802682 120.64408969 57.74188232 120.65607071 C62.72771456 120.66328435 67.71350742 120.66100366 72.69934082 120.65581512 C75.09802266 120.65447726 77.49670803 120.65613111 79.89538574 120.66077423 C83.24285405 120.66583129 86.59005193 120.65814066 89.9375 120.64697266 C91.43682068 120.65304535 91.43682068 120.65304535 92.96643066 120.65924072 C93.87501831 120.65360107 94.78360596 120.64796143 95.71972656 120.64215088 C96.51171448 120.64139683 97.30370239 120.64064278 98.11968994 120.63986588 C100.28526071 120.55618806 100.28526071 120.55618806 102.046875 118.38818359 C102.23473114 115.82811029 102.29874694 113.37762687 102.27392578 110.81738281 C102.27428739 109.62755893 102.27428739 109.62755893 102.2746563 108.4136982 C102.27316066 105.839976 102.25791665 103.26654163 102.2421875 100.69287109 C102.23924784 99.10636535 102.23720692 97.51985768 102.23608398 95.93334961 C102.22558776 90.04326474 102.19766545 84.15322136 102.171875 78.26318359 C102.130625 65.10443359 102.089375 51.94568359 102.046875 38.38818359 C65.086875 38.38818359 28.126875 38.38818359 -9.953125 38.38818359 Z " fill="#000000" transform="translate(17.953125,-0.38818359375)"/>
<path d="M0 0 C1.99954746 -0.04254356 4.00041636 -0.04080783 6 0 C6.33 0.33 6.66 0.66 7 1 C6.69137005 8.38994688 4.61046437 14.10255414 1.59765625 20.80078125 C0.94101234 22.29897652 0.94101234 22.29897652 0.27110291 23.82743835 C-1.12028804 26.99433157 -2.52868266 30.15332654 -3.9375 33.3125 C-4.88066493 35.45328839 -5.8227333 37.59456025 -6.76367188 39.73632812 C-8.48684716 43.64917832 -10.21363328 47.56032878 -11.95288086 51.46606445 C-12.30072128 52.24722122 -12.64856171 53.02837799 -13.00694275 53.83320618 C-13.9603275 55.91343689 -14.96367564 57.96000897 -16 60 C-17.99954746 60.04254356 -20.00041636 60.04080783 -22 60 C-22.33 59.67 -22.66 59.34 -23 59 C-22.69137005 51.61005312 -20.61046437 45.89744586 -17.59765625 39.19921875 C-17.15989365 38.20042191 -16.72213104 37.20162506 -16.27110291 36.17256165 C-14.87971196 33.00566843 -13.47131734 29.84667346 -12.0625 26.6875 C-11.11933507 24.54671161 -10.1772667 22.40543975 -9.23632812 20.26367188 C-7.51315284 16.35082168 -5.78636672 12.43967122 -4.04711914 8.53393555 C-3.69927872 7.75277878 -3.35143829 6.97162201 -2.99305725 6.16679382 C-2.0396725 4.08656311 -1.03632436 2.03999103 0 0 Z " fill="#000000" transform="translate(72,49)"/>
<path d="M0 0 C3.04719364 0.34502435 4.1487337 1.0684337 6.46313477 3.03442383 C7.15084961 3.60741211 7.83856445 4.18040039 8.54711914 4.77075195 C9.25030273 5.37725586 9.95348633 5.98375977 10.67797852 6.60864258 C12.08518567 7.79264641 13.49272733 8.97625279 14.90063477 10.15942383 C15.51817627 10.68834229 16.13571777 11.21726074 16.77197266 11.76220703 C18.62905371 13.35127753 18.62905371 13.35127753 20.79956055 14.82128906 C22.61547852 16.29614258 22.61547852 16.29614258 23.38500977 19.03051758 C22.16213191 24.21998907 18.41623886 26.40716298 14.30297852 29.54614258 C13.51729492 30.17004883 12.73161133 30.79395508 11.92211914 31.43676758 C2.59090349 38.80644258 2.59090349 38.80644258 -2.38452148 38.29614258 C-4.38452148 36.29614258 -4.38452148 36.29614258 -4.41186523 34.03442383 C-2.91383023 30.04156246 -0.21763431 28.10363082 3.05297852 25.48364258 C3.65174805 24.98155273 4.25051758 24.47946289 4.86743164 23.9621582 C9.32151593 20.29614258 9.32151593 20.29614258 11.61547852 20.29614258 C11.61547852 19.63614258 11.61547852 18.97614258 11.61547852 18.29614258 C11.0727832 18.05508789 10.53008789 17.8140332 9.97094727 17.56567383 C7.02802019 15.9795191 4.54548208 14.06296784 1.92797852 11.98364258 C0.95473633 11.22438477 -0.01850586 10.46512695 -1.02124023 9.68286133 C-3.56460628 7.11427181 -4.3184067 5.88437232 -4.38452148 2.29614258 C-2.38452148 0.29614258 -2.38452148 0.29614258 0 0 Z " fill="#000000" transform="translate(86.384521484375,59.703857421875)"/>
<path d="M0 0 C2 2 2 2 2.02734375 4.26171875 C0.52930874 8.25458011 -2.16688717 10.19251176 -5.4375 12.8125 C-6.3356543 13.56563477 -6.3356543 13.56563477 -7.25195312 14.33398438 C-11.70603741 18 -11.70603741 18 -14 18 C-14 18.66 -14 19.32 -14 20 C-13.45730469 20.24105469 -12.91460937 20.48210937 -12.35546875 20.73046875 C-9.41254167 22.31662348 -6.93000356 24.23317474 -4.3125 26.3125 C-3.33925781 27.07175781 -2.36601563 27.83101562 -1.36328125 28.61328125 C1.1800848 31.18187076 1.93388521 32.41177025 2 36 C0 38 0 38 -2.38452148 38.29614258 C-5.43171513 37.95111823 -6.53325518 37.22770888 -8.84765625 35.26171875 C-9.53537109 34.68873047 -10.22308594 34.11574219 -10.93164062 33.52539062 C-11.63482422 32.91888672 -12.33800781 32.31238281 -13.0625 31.6875 C-14.46970715 30.50349617 -15.87724882 29.31988978 -17.28515625 28.13671875 C-17.90269775 27.60780029 -18.52023926 27.07888184 -19.15649414 26.53393555 C-21.01357519 24.94486504 -21.01357519 24.94486504 -23.18408203 23.47485352 C-25 22 -25 22 -25.76953125 19.265625 C-24.5466534 14.0761535 -20.80076035 11.8889796 -16.6875 8.75 C-15.90181641 8.12609375 -15.11613281 7.5021875 -14.30664062 6.859375 C-4.97542498 -0.5103 -4.97542498 -0.5103 0 0 Z " fill="#000000" transform="translate(44,60)"/>
<path d="M0 0 C1.25554687 -0.00128906 2.51109375 -0.00257812 3.8046875 -0.00390625 C4.46178711 -0.00181152 5.11888672 0.0002832 5.79589844 0.00244141 C7.80411335 0.00779016 9.81210459 0.00249559 11.8203125 -0.00390625 C13.07585937 -0.00261719 14.33140625 -0.00132813 15.625 0 C16.78644531 0.00112793 17.94789062 0.00225586 19.14453125 0.00341797 C21.8125 0.1328125 21.8125 0.1328125 22.8125 1.1328125 C22.9375 4.1328125 22.9375 4.1328125 22.8125 7.1328125 C20.05698489 9.88832761 11.59275429 8.31849453 7.875 8.3203125 C6.56080078 8.33255859 5.24660156 8.34480469 3.89257812 8.35742188 C2.64025391 8.35935547 1.38792969 8.36128906 0.09765625 8.36328125 C-1.63665649 8.36944458 -1.63665649 8.36944458 -3.40600586 8.37573242 C-6.1875 8.1328125 -6.1875 8.1328125 -8.1875 6.1328125 C-7.41617037 -0.1920905 -6.10693159 0.0059307 0 0 Z " fill="#000000" transform="translate(90.1875,14.8671875)"/>
<path d="M0 0 C3 0.125 3 0.125 4 1.125 C4.125 4.125 4.125 4.125 4 7.125 C3 8.125 3 8.125 0 8.25 C-3 8.125 -3 8.125 -4 7.125 C-4.125 4.125 -4.125 4.125 -4 1.125 C-3 0.125 -3 0.125 0 0 Z " fill="#000000" transform="translate(49,14.875)"/>
<path d="M0 0 C3 0.125 3 0.125 4 1.125 C4.125 4.125 4.125 4.125 4 7.125 C3 8.125 3 8.125 0 8.25 C-3 8.125 -3 8.125 -4 7.125 C-4.125 4.125 -4.125 4.125 -4 1.125 C-3 0.125 -3 0.125 0 0 Z " fill="#000000" transform="translate(34,14.875)"/>
<path d="M0 0 C3 0.125 3 0.125 4 1.125 C4.125 4.125 4.125 4.125 4 7.125 C3 8.125 3 8.125 0 8.25 C-3 8.125 -3 8.125 -4 7.125 C-4.125 4.125 -4.125 4.125 -4 1.125 C-3 0.125 -3 0.125 0 0 Z " fill="#000000" transform="translate(19,14.875)"/>
</svg>
